<?xml version="1.0" standalone="no"?>
<!DOCTYPE svg PUBLIC "-//W3C//DTD SVG 20010904//EN"
 "http://www.w3.org/TR/2001/REC-SVG-20010904/DTD/svg10.dtd">
<svg version="1.0" xmlns="http://www.w3.org/2000/svg"
 width="453.000000pt" height="453.000000pt" viewBox="0 0 453.000000 453.000000"
 preserveAspectRatio="xMidYMid meet">
<metadata>
Created by potrace 1.14, written by Peter Selinger 2001-2017
</metadata>
<g transform="translate(0.000000,453.000000) scale(0.100000,-0.100000)"
fill="#000000" stroke="none">
<path d="M2102 4439 c-9 -3 -29 -4 -45 -3 -18 3 -26 0 -21 -7 4 -8 0 -7 -15 0
-11 7 -21 8 -21 4 0 -4 -17 -8 -38 -9 -20 0 -57 -4 -82 -9 -25 -4 -54 -9 -65
-11 -11 -1 -21 -3 -22 -4 -2 -2 -7 -4 -13 -5 -5 -1 -11 -3 -12 -4 -2 -2 -12
-4 -24 -6 -11 -3 -47 -12 -80 -20 -32 -9 -63 -17 -69 -18 -5 -2 -16 -6 -22
-10 -7 -5 -17 -5 -23 -2 -5 3 -10 2 -10 -3 0 -5 -17 -14 -37 -20 -60 -17 -109
-37 -126 -50 -8 -7 -25 -14 -36 -15 -12 -1 -21 -5 -21 -10 0 -4 -4 -6 -9 -3
-5 3 -14 -1 -21 -9 -7 -8 -16 -12 -21 -9 -5 3 -9 0 -9 -6 0 -6 -4 -8 -10 -5
-5 3 -10 1 -10 -4 0 -6 -11 -11 -25 -11 -15 0 -24 -5 -22 -12 1 -7 -4 -12 -10
-11 -7 2 -13 -2 -13 -7 0 -5 -3 -9 -7 -9 -20 3 -34 -2 -28 -11 3 -5 -1 -10 -9
-10 -9 0 -16 -6 -16 -12 0 -9 -4 -8 -10 2 -5 8 -10 10 -10 3 0 -6 -20 -24 -45
-40 -25 -15 -45 -32 -45 -36 0 -5 -4 -6 -9 -3 -5 3 -22 -8 -40 -24 -17 -17
-33 -30 -36 -30 -3 0 -19 -14 -35 -30 -17 -17 -30 -28 -30 -25 0 3 -16 -10
-35 -30 -20 -19 -36 -34 -38 -32 -6 5 -145 -141 -140 -147 4 -3 1 -6 -5 -6
-15 0 -52 -36 -45 -43 2 -3 -5 -10 -16 -17 -12 -6 -21 -16 -21 -23 0 -7 -8
-20 -17 -29 -27 -26 -45 -48 -37 -48 4 0 -3 -9 -16 -20 -13 -11 -19 -20 -14
-20 5 -1 -1 -9 -13 -19 -12 -10 -19 -21 -16 -25 4 -3 1 -6 -5 -6 -7 0 -12 -8
-12 -18 0 -10 -11 -29 -25 -42 -13 -12 -22 -27 -19 -31 3 -5 0 -9 -6 -9 -7 0
-9 -7 -6 -16 3 -8 2 -13 -3 -10 -10 7 -108 -187 -111 -219 0 -3 -9 -21 -20
-41 -11 -19 -18 -39 -15 -45 4 -5 1 -9 -6 -9 -7 0 -10 -3 -7 -6 4 -3 0 -17 -7
-31 -8 -15 -12 -30 -9 -35 3 -4 0 -8 -6 -8 -6 0 -8 -4 -5 -10 3 -5 1 -10 -5
-10 -6 0 -9 -4 -6 -9 4 -5 1 -22 -5 -38 -6 -15 -12 -35 -13 -43 -1 -8 -5 -22
-8 -30 -6 -13 -20 -79 -23 -105 -1 -5 -7 -35 -13 -65 -19 -85 -25 -179 -24
-380 1 -207 6 -294 22 -360 13 -57 20 -88 27 -125 2 -16 13 -56 24 -90 10 -33
19 -68 19 -78 0 -10 5 -15 11 -11 6 3 10 -1 9 -12 -1 -11 -1 -22 0 -26 1 -5 3
-11 5 -15 3 -14 17 -47 30 -78 8 -16 11 -33 9 -37 -3 -4 0 -8 5 -8 6 0 11 -9
11 -20 0 -11 4 -20 8 -20 5 0 15 -18 22 -40 7 -22 18 -40 23 -40 6 0 8 -3 5
-6 -4 -3 9 -33 28 -66 19 -33 34 -64 34 -69 0 -5 4 -9 10 -9 5 0 9 -6 7 -12
-1 -7 4 -12 10 -11 7 2 12 0 11 -5 -2 -13 28 -73 34 -66 4 3 9 -3 12 -14 4
-11 14 -29 24 -40 44 -52 52 -63 52 -68 0 -3 10 -16 22 -30 13 -13 34 -38 48
-55 49 -60 173 -184 182 -182 4 2 8 -4 8 -12 0 -8 5 -15 11 -15 7 0 27 -16 45
-36 19 -19 34 -32 34 -27 0 4 5 0 11 -9 5 -10 17 -18 24 -18 8 0 15 -5 15 -12
0 -6 3 -9 6 -5 3 3 17 -4 30 -16 37 -35 54 -48 54 -42 0 3 10 -3 22 -15 12
-11 28 -20 35 -20 7 0 13 -4 13 -9 0 -5 14 -14 30 -20 17 -5 30 -15 30 -22 0
-7 3 -9 7 -6 3 4 15 -1 26 -10 15 -13 18 -14 12 -3 -4 8 3 5 17 -7 13 -13 32
-23 41 -23 9 0 17 -5 17 -12 0 -6 3 -9 6 -5 3 3 24 -5 45 -19 21 -13 43 -24
48 -24 6 0 28 -9 49 -20 22 -11 49 -23 62 -25 12 -2 28 -9 36 -16 8 -6 14 -8
14 -4 0 4 6 3 13 -3 6 -5 23 -12 37 -14 14 -1 27 -6 30 -10 4 -4 23 -9 43 -10
20 -2 37 -6 37 -9 0 -4 17 -10 38 -14 20 -4 48 -9 62 -12 14 -2 36 -6 50 -8
14 -2 25 -4 25 -5 0 -1 14 -4 30 -5 17 -2 48 -6 70 -10 118 -18 267 -24 284
-11 11 8 13 8 7 -2 -4 -6 -3 -12 3 -12 5 0 13 5 16 10 5 8 11 8 19 1 7 -6 15
-9 18 -6 2 2 29 5 59 6 30 1 62 6 73 11 14 8 17 7 11 -3 -5 -7 -4 -10 3 -5 11
7 96 19 140 20 12 0 22 3 22 6 0 4 14 6 30 5 17 -1 30 1 30 5 0 4 10 7 23 7
39 1 48 3 44 11 -3 4 11 8 30 8 19 1 39 7 43 14 5 9 9 9 14 1 5 -8 12 -7 22 4
9 8 28 15 43 15 15 0 31 4 37 9 5 5 27 14 49 21 22 7 65 24 95 38 30 14 57 26
60 27 32 8 50 18 50 26 0 6 4 8 9 5 5 -3 21 4 37 16 16 13 25 16 20 8 -4 -8 0
-6 8 4 9 11 16 16 16 11 0 -4 8 -1 18 8 10 10 22 14 25 11 4 -4 9 1 13 10 3 9
10 13 15 10 5 -3 9 -2 9 3 0 4 18 17 40 27 22 11 40 23 40 28 0 5 5 6 10 3 6
-3 10 1 10 9 0 9 3 15 8 14 11 -3 56 23 65 38 4 8 14 14 21 14 7 0 21 11 32
24 10 14 22 23 26 20 4 -3 11 2 14 10 3 9 12 16 20 16 8 0 14 4 14 9 0 5 15
19 34 32 19 13 33 26 31 30 -3 3 7 12 20 19 14 7 27 22 31 32 3 10 10 16 15
13 5 -4 9 1 9 10 0 9 5 13 10 10 6 -3 10 -2 10 4 0 6 12 24 28 40 37 40 71 81
72 86 0 3 8 13 18 23 30 32 52 62 52 70 0 4 9 14 20 22 11 8 20 20 20 26 0 6
10 22 23 36 13 14 22 29 20 34 -2 6 5 19 16 30 22 24 56 86 53 97 -1 4 3 7 8
7 6 0 10 7 10 15 0 9 6 18 13 21 7 2 14 17 15 32 1 15 7 29 12 30 6 2 10 10
10 18 0 8 4 14 10 14 5 0 9 3 8 8 -2 8 18 59 33 86 8 14 8 16 -3 10 -7 -4 -4
2 6 14 11 12 16 22 11 22 -4 0 -2 7 5 15 7 8 10 15 6 15 -4 0 1 11 10 25 9 14
14 28 10 32 -3 3 -1 12 5 20 6 7 9 13 5 13 -3 0 1 17 10 37 14 35 29 96 40
168 3 17 8 37 11 45 7 17 11 44 18 115 12 114 14 157 13 295 -1 192 -2 220 -8
220 -3 0 -6 17 -6 38 -2 59 -8 107 -16 112 -3 3 -8 24 -10 48 -3 23 -7 45 -11
49 -4 3 -7 21 -7 39 0 18 -4 36 -10 39 -5 3 -10 17 -10 30 0 13 -5 27 -11 30
-5 4 -8 12 -6 18 2 7 -4 31 -14 55 -10 23 -18 43 -18 45 0 2 -16 45 -33 85 -6
15 -12 29 -13 32 -19 51 -28 70 -34 70 -4 0 -7 10 -8 22 -1 11 -6 24 -10 27
-4 3 -19 29 -33 56 -14 28 -28 52 -32 53 -5 2 -8 8 -8 13 0 5 -22 43 -50 84
-27 41 -47 75 -44 75 3 0 -5 11 -18 24 -13 13 -32 36 -43 52 -32 44 -67 87
-97 117 -15 15 -28 31 -28 36 0 5 -9 12 -19 16 -11 3 -23 14 -26 24 -3 10 -16
24 -30 31 -13 7 -22 17 -19 22 3 4 0 8 -5 8 -12 0 -54 34 -84 67 -11 12 -24
20 -29 17 -5 -3 -12 3 -15 15 -3 12 -11 21 -18 21 -7 0 -24 10 -38 23 -40 34
-67 54 -122 89 -27 18 -52 36 -55 40 -3 4 -22 14 -43 23 -20 8 -37 20 -37 26
0 5 -4 8 -8 5 -5 -3 -23 4 -40 15 -18 10 -39 19 -47 19 -8 0 -15 5 -15 10 0 6
-9 10 -19 10 -11 0 -23 5 -26 10 -4 6 -11 8 -16 5 -5 -4 -9 -2 -9 3 0 5 -15
14 -32 20 -46 15 -120 41 -138 49 -8 3 -19 7 -25 9 -5 2 -31 10 -57 18 -25 8
-49 12 -52 9 -3 -4 -6 0 -6 7 0 7 -3 11 -6 8 -3 -4 -20 -2 -37 4 -18 5 -41 11
-52 13 -11 1 -20 3 -20 5 0 1 -13 3 -30 5 -16 2 -41 6 -55 9 -34 8 -127 19
-170 20 -19 1 -38 6 -42 11 -5 6 -8 5 -8 -3 0 -8 -5 -10 -12 -6 -14 9 -242 12
-266 3z"/>
</g>
</svg>
