<?xml version="1.0" standalone="no"?>
<!DOCTYPE svg PUBLIC "-//W3C//DTD SVG 20010904//EN"
 "http://www.w3.org/TR/2001/REC-SVG-20010904/DTD/svg10.dtd">
<svg version="1.0" xmlns="http://www.w3.org/2000/svg"
 width="754.000000pt" height="754.000000pt" viewBox="0 0 754.000000 754.000000"
 preserveAspectRatio="xMidYMid meet">
<metadata>
Created by potrace 1.14, written by Peter Selinger 2001-2017
</metadata>
<g transform="translate(0.000000,754.000000) scale(0.100000,-0.100000)"
fill="#000000" stroke="none">
<path d="M6108 6236 c-51 -46 -111 -103 -133 -127 -358 -399 -940 -972 -1102
-1087 -18 -13 -84 -83 -147 -155 -145 -169 -300 -315 -690 -650 -176 -152
-290 -217 -427 -243 -46 -9 -107 -21 -134 -28 -53 -13 -107 -5 -135 19 -8 7
-27 15 -41 18 -14 4 -48 24 -75 46 -37 29 -60 40 -93 43 l-44 3 -3 -45 c-2
-36 2 -50 22 -71 13 -14 23 -36 23 -50 -1 -13 10 -68 25 -123 14 -54 26 -105
26 -113 0 -16 -48 -62 -126 -123 -59 -46 -133 -85 -469 -246 -285 -137 -442
-205 -585 -251 -71 -23 -163 -66 -285 -133 -209 -115 -314 -163 -514 -234 -78
-28 -141 -55 -140 -60 7 -14 -68 -46 -305 -128 -227 -78 -346 -131 -354 -155
-10 -33 176 1 358 66 147 52 160 59 160 85 0 18 5 24 25 23 13 0 29 -5 35 -12
11 -13 6 -16 -285 -187 -282 -166 -415 -255 -415 -280 0 -14 67 -5 146 21 69
22 224 98 303 148 101 65 60 27 -111 -102 -257 -194 -355 -297 -265 -280 81
15 304 146 490 287 42 32 77 55 77 51 0 -5 -82 -94 -181 -198 -100 -105 -202
-218 -227 -252 -59 -79 -94 -145 -83 -156 20 -20 188 103 351 258 52 50 106
99 119 110 l24 20 -11 -20 c-6 -11 -32 -50 -58 -85 -127 -173 -235 -362 -250
-439 -7 -33 -6 -33 17 -21 57 30 311 315 467 522 24 32 46 58 48 58 6 0 -38
-86 -94 -185 -110 -194 -202 -411 -202 -476 0 -64 87 30 241 262 64 96 142
219 175 274 32 55 60 93 62 85 1 -9 -25 -90 -59 -180 -98 -263 -152 -472 -135
-517 7 -16 10 -15 32 12 64 77 234 400 234 443 0 10 -7 28 -16 40 -23 33 -13
47 18 23 l26 -21 27 75 c16 42 32 78 36 81 14 8 11 -28 -16 -190 -56 -347 -26
-375 110 -101 54 109 70 134 91 139 37 10 80 44 109 88 22 33 30 38 64 38 26
0 51 9 79 30 23 16 50 30 59 30 19 0 88 21 168 51 28 10 61 19 74 19 13 0 44
6 70 14 46 14 115 34 201 56 25 7 52 18 60 25 8 7 44 25 80 39 36 15 73 31 82
36 10 6 27 10 38 10 23 0 95 34 104 49 4 5 24 12 47 16 22 4 53 13 67 21 15 8
34 14 43 14 9 0 30 7 45 15 16 8 38 15 50 15 11 0 35 11 54 25 19 14 39 25 45
25 6 0 21 8 35 17 13 9 58 29 100 44 41 14 84 31 95 37 11 7 31 17 45 22 14 6
44 23 66 38 23 15 70 45 104 67 34 22 79 56 99 75 110 106 163 132 180 88 5
-13 36 -137 71 -277 l62 -254 53 -53 c62 -60 99 -73 144 -50 16 9 42 16 57 16
15 0 51 14 81 30 29 17 65 30 81 30 15 0 43 11 62 25 23 17 47 25 75 25 33 0
47 6 70 30 15 16 44 35 64 41 39 13 91 50 160 117 25 23 48 42 52 42 3 0 12
12 18 28 6 15 25 36 41 47 17 11 33 29 36 39 4 11 28 41 55 68 58 58 62 85 18
122 -17 14 -35 26 -40 26 -5 0 -94 41 -197 91 -103 50 -241 113 -307 141 -66
28 -124 54 -129 59 -19 17 12 55 68 84 31 16 67 40 78 52 12 13 29 23 38 23
10 0 34 11 54 25 20 14 43 25 51 25 8 0 63 43 123 95 61 52 114 95 120 95 6 0
21 13 34 29 14 16 34 31 45 35 11 4 34 22 52 41 17 19 36 35 41 35 6 0 27 26
47 57 39 62 131 156 174 178 14 8 37 31 51 52 15 21 39 50 55 65 89 87 113
108 122 108 6 0 17 13 26 29 8 16 23 32 33 35 10 4 29 24 43 46 13 22 27 40
31 40 4 0 20 19 36 43 16 23 64 77 106 120 42 42 83 92 92 110 9 17 24 41 34
52 9 11 20 32 24 47 3 15 20 35 40 47 48 30 86 71 86 93 0 10 6 21 13 23 96
33 136 53 159 77 l26 28 154 3 c157 4 213 16 213 47 0 20 -152 64 -335 97 -80
14 -149 30 -154 34 -6 5 22 9 65 9 40 1 90 3 109 5 19 2 98 9 175 15 77 6 168
15 202 21 34 5 88 12 119 15 106 12 132 28 84 51 -59 27 -220 45 -453 50 -131
3 -236 7 -234 9 2 2 77 17 168 34 274 51 579 138 579 166 0 44 -261 39 -594
-10 -137 -20 -250 -35 -252 -33 -2 2 44 18 103 36 139 42 325 109 433 156 47
20 106 45 132 55 75 29 180 90 175 103 -3 8 -34 12 -98 11 -108 -1 -264 -36
-499 -111 -216 -68 -261 -76 -157 -27 28 14 59 29 67 34 8 4 44 23 80 41 181
89 344 193 446 283 48 42 49 56 1 56 -62 0 -149 -34 -500 -195 -57 -26 -92
-29 -45 -4 87 46 328 266 387 352 68 100 -8 79 -227 -61 -148 -94 -162 -99
-83 -29 118 106 180 189 167 223 -5 12 -15 10 -56 -11 -74 -37 -247 -157 -417
-286 -81 -63 -166 -127 -188 -143 l-40 -29 26 29 c14 16 46 52 71 79 49 54
127 148 169 205 29 39 89 153 89 170 0 28 -47 2 -132 -74z"/>
</g>
</svg>
